<?xml version="1.0" encoding="UTF-8"?>
<!DOCTYPE svg PUBLIC "-//W3C//DTD SVG 1.1//EN" "http://www.w3.org/Graphics/SVG/1.1/DTD/svg11.dtd">
<!-- Creator: CorelDRAW -->
<svg xmlns="http://www.w3.org/2000/svg" xml:space="preserve" width="250px" height="214px" version="1.1" style="shape-rendering:geometricPrecision; text-rendering:geometricPrecision; image-rendering:optimizeQuality; fill-rule:evenodd; clip-rule:evenodd"
viewBox="0 0 50.35 43.17"
 xmlns:xlink="http://www.w3.org/1999/xlink"
 xmlns:xodm="http://www.corel.com/coreldraw/odm/2003">
 <defs>
  <style type="text/css">
   <![CDATA[
    .fil0 {fill:black;fill-rule:nonzero}
    .fil1 {fill:#2B2A29;fill-rule:nonzero}
   ]]>
  </style>
 </defs>
 <g id="Слой_x0020_1">
  <metadata id="CorelCorpID_0Corel-Layer"/>
  <g id="_2744857229712">
   <path class="fil0" d="M20.21 0.04c-1.11,0.15 -2.68,0.81 -3.88,1.65 -0.81,0.58 -2.05,1.77 -2.71,2.6 -0.28,0.35 -0.52,0.68 -0.53,0.72 -0.02,0.04 0.46,-0.25 1.06,-0.64 1.99,-1.31 3.11,-1.74 4.99,-1.92 1.61,-0.16 3.38,0.15 6.72,1.21l1.28 0.4 1.71 -0.79c0.93,-0.43 1.7,-0.81 1.7,-0.83 0,-0.07 -0.29,-0.17 -2.41,-0.88 -3.49,-1.17 -6.33,-1.72 -7.93,-1.52l0 0z"/>
   <path class="fil0" d="M30.2 4.42c-3.62,1.67 -6.81,3.09 -8.72,3.88 -1.66,0.68 -3.09,1.31 -3.19,1.38 -0.29,0.27 -0.36,0.63 -0.35,1.84 0.01,1.7 0.08,1.73 0.53,0.26 0.45,-1.5 0.48,-1.56 0.72,-1.69 0.4,-0.21 5.75,-2.2 11.4,-4.24 3.18,-1.15 5.92,-2.16 6.09,-2.23 0.17,-0.09 0.37,-0.26 0.45,-0.38 0.27,-0.46 0.11,-1.14 -0.34,-1.37 -0.52,-0.27 -0.55,-0.25 -6.59,2.55z"/>
   <path class="fil0" d="M32 4.62c-0.99,0.36 -1.75,0.67 -1.68,0.69 0.35,0.12 3.02,1.42 3.63,1.77 0.39,0.22 0.72,0.4 0.73,0.39 0.01,-0.01 0.04,-0.72 0.06,-1.56l0.06 -1.55 -0.4 -0.2c-0.22,-0.11 -0.44,-0.2 -0.5,-0.2 -0.06,0.01 -0.91,0.3 -1.9,0.66l0 0z"/>
   <path class="fil0" d="M15.25 10.23c-0.14,0.14 -0.12,0.22 0.17,0.39 0.34,0.2 0.38,0.2 0.38,-0.07 0,-0.17 -0.06,-0.26 -0.2,-0.32 -0.25,-0.12 -0.23,-0.12 -0.35,0l0 0z"/>
   <path class="fil0" d="M15.24 11.52c-0.52,0.25 -0.67,0.47 -0.39,0.52 0.2,0.04 1.03,-0.35 1.03,-0.48 -0.01,-0.29 -0.13,-0.3 -0.64,-0.04l0 0z"/>
   <path class="fil0" d="M17.13 11.59c-0.03,0.12 0,0.22 0.05,0.27 0.06,0.04 0.45,0.35 0.85,0.68l0.75 0.59 -0.69 0.68c-0.7,0.67 -0.79,0.84 -0.56,0.93 0.1,0.03 0.35,-0.16 0.86,-0.67l0.73 -0.72 0.5 0.28 0.5 0.28 -0.48 0.73c-0.27,0.4 -0.47,0.77 -0.45,0.82 0.01,0.05 0.09,0.09 0.18,0.09 0.11,0 0.3,-0.22 0.6,-0.66 0.24,-0.36 0.46,-0.68 0.49,-0.72 0.08,-0.07 1.11,0.31 1.11,0.41 0,0.04 -0.11,0.4 -0.26,0.79 -0.17,0.5 -0.22,0.73 -0.16,0.79 0.17,0.17 0.32,-0.01 0.58,-0.75 0.14,-0.41 0.27,-0.75 0.28,-0.76 0.02,-0.03 1.16,0.19 1.2,0.23 0.02,0.02 0,0.35 -0.04,0.75 -0.06,0.59 -0.05,0.74 0.04,0.84 0.2,0.18 0.28,0.01 0.36,-0.73 0.04,-0.37 0.08,-0.72 0.08,-0.76 0,-0.04 0.25,-0.07 0.64,-0.05l0.64 0.02 0.09 0.73c0.12,0.78 0.25,1.04 0.45,0.85 0.09,-0.09 0.08,-0.21 -0.01,-0.78 -0.07,-0.38 -0.12,-0.73 -0.12,-0.77 0,-0.05 0.19,-0.12 0.42,-0.15 0.23,-0.02 0.49,-0.07 0.59,-0.09 0.15,-0.04 0.21,0.04 0.51,0.76 0.19,0.45 0.38,0.83 0.42,0.86 0.05,0.03 0.13,0 0.19,-0.07 0.1,-0.09 0.07,-0.21 -0.2,-0.87 -0.18,-0.42 -0.29,-0.78 -0.27,-0.8 0.04,-0.04 0.27,-0.12 0.53,-0.19 0.32,-0.09 0.49,-0.11 0.57,-0.05 0.05,0.04 0.31,0.39 0.56,0.77 0.45,0.65 0.69,0.82 0.79,0.56 0.02,-0.05 -0.19,-0.44 -0.48,-0.84 -0.29,-0.41 -0.51,-0.75 -0.49,-0.76 0.01,-0.02 0.22,-0.09 0.45,-0.18l0.43 -0.15 0.68 0.71c0.37,0.39 0.72,0.7 0.77,0.67 0.26,-0.08 0.13,-0.34 -0.46,-0.94l-0.61 -0.61 0.34 -0.13c0.2,-0.08 0.38,-0.14 0.42,-0.14 0.03,0 0.46,0.37 0.94,0.81 0.58,0.54 0.91,0.79 0.99,0.76 0.24,-0.09 0.11,-0.29 -0.64,-0.98 -0.42,-0.39 -0.76,-0.73 -0.76,-0.77 0,-0.06 0.67,-0.22 1.06,-0.24 0.38,-0.03 0.53,-0.16 0.38,-0.34 -0.09,-0.1 -0.19,-0.12 -0.51,-0.08 -0.53,0.06 -0.93,0.19 -2.57,0.83 -2.57,0.97 -3.39,1.17 -4.89,1.17 -2.48,-0.01 -4.27,-0.7 -6.48,-2.5 -0.4,-0.32 -0.75,-0.58 -0.78,-0.58 -0.03,0 -0.08,0.08 -0.11,0.17l0 0z"/>
   <path class="fil0" d="M15 12.99c-1.62,0.58 -1.69,0.6 -1.69,0.71 0,0.22 0.16,0.2 1.05,-0.12 0.49,-0.17 0.91,-0.31 0.92,-0.29 0.02,0 -0.28,0.25 -0.67,0.53 -0.66,0.5 -0.91,0.8 -0.62,0.8 0.08,0 0.49,-0.27 0.93,-0.6 0.44,-0.33 0.8,-0.58 0.8,-0.56 0,0.03 -0.24,0.38 -0.52,0.78 -0.55,0.76 -0.62,0.95 -0.38,0.95 0.08,0 0.39,-0.37 0.82,-0.97 0.86,-1.24 0.92,-1.34 0.79,-1.49 -0.14,-0.17 -0.34,-0.13 -1.43,0.26l0 0z"/>
   <path class="fil1" d="M5.98 24.91c1.12,-1.96 2.09,-3.35 2.92,-4.18 0.82,-0.83 1.63,-1.24 2.42,-1.24 0.51,0 0.92,0.15 1.23,0.45 0.31,0.31 0.46,0.71 0.46,1.22 0,0.51 -0.38,1.92 -1.14,4.23 -0.19,0.59 -0.34,1.04 -0.44,1.36 -0.08,0.25 -0.2,0.61 -0.36,1.06 -0.44,1.31 -0.66,2.12 -0.66,2.45 0,0.35 0.11,0.61 0.33,0.77 0.22,0.15 0.6,0.24 1.14,0.27l-0.32 1.12 -0.3 0c-0.95,0 -1.67,-0.19 -2.16,-0.55 -0.5,-0.37 -0.75,-0.91 -0.75,-1.61 0,-0.63 0.38,-1.98 1.14,-4.03 0.27,-0.73 0.47,-1.3 0.62,-1.71 0.27,-0.75 0.46,-1.33 0.57,-1.73 0.11,-0.41 0.17,-0.73 0.17,-0.94 0,-0.17 -0.03,-0.29 -0.1,-0.37 -0.07,-0.08 -0.18,-0.12 -0.32,-0.12 -0.22,0 -0.49,0.15 -0.82,0.44 -0.33,0.29 -0.72,0.74 -1.18,1.34 -0.66,0.89 -1.28,1.78 -1.83,2.68 -0.56,0.88 -1.03,1.72 -1.41,2.5 -0.55,1.14 -1.04,2.29 -1.47,3.47 -0.1,0.26 -0.16,0.41 -0.17,0.43 -0.07,0.1 -0.21,0.18 -0.41,0.23 -0.2,0.06 -0.44,0.08 -0.73,0.08 -0.29,0 -0.5,-0.03 -0.62,-0.09 -0.11,-0.06 -0.17,-0.16 -0.17,-0.31 0,-0.16 0.18,-0.66 0.55,-1.49 0.19,-0.41 0.34,-0.74 0.45,-0.99 0.65,-1.51 1.15,-2.92 1.53,-4.21 0.37,-1.29 0.56,-2.27 0.56,-2.93 0,-0.37 -0.09,-0.65 -0.26,-0.85 -0.18,-0.2 -0.41,-0.3 -0.72,-0.3 -0.53,0 -1,0.32 -1.41,0.97 -0.41,0.64 -0.62,1.39 -0.62,2.26 0,0.27 0.03,0.54 0.09,0.81 0.05,0.27 0.14,0.56 0.25,0.86 -0.09,0.06 -0.19,0.11 -0.29,0.14 -0.11,0.03 -0.22,0.04 -0.35,0.04 -0.45,0 -0.8,-0.17 -1.04,-0.52 -0.24,-0.34 -0.36,-0.85 -0.36,-1.51 0,-1.32 0.4,-2.45 1.21,-3.41 0.8,-0.96 1.74,-1.44 2.82,-1.44 0.74,0 1.33,0.24 1.77,0.73 0.44,0.5 0.66,1.15 0.66,1.98 0,0.33 -0.04,0.71 -0.11,1.14 -0.08,0.42 -0.2,0.92 -0.37,1.5zm13.56 1.4c-0.15,-0.12 -0.29,-0.2 -0.44,-0.26 -0.14,-0.05 -0.29,-0.08 -0.44,-0.08 -0.33,0 -0.7,0.14 -1.12,0.42 -0.42,0.28 -0.82,0.66 -1.21,1.15 -0.35,0.44 -0.63,0.91 -0.83,1.41 -0.21,0.5 -0.31,0.93 -0.31,1.31 0,0.27 0.05,0.47 0.14,0.59 0.09,0.13 0.23,0.2 0.43,0.2 0.54,0 1.13,-0.4 1.77,-1.2 0.64,-0.81 1.31,-1.99 2.01,-3.54zm-0.84 3.12c-0.59,1.05 -1.17,1.81 -1.74,2.29 -0.58,0.49 -1.2,0.73 -1.86,0.73 -0.31,0 -0.58,-0.05 -0.82,-0.13 -0.23,-0.09 -0.41,-0.22 -0.55,-0.39 -0.27,0.15 -0.58,0.26 -0.94,0.34 -0.35,0.08 -0.76,0.13 -1.23,0.15l0.33 -1.12c0.3,-0.01 0.57,-0.05 0.81,-0.11 0.24,-0.06 0.45,-0.15 0.65,-0.26 -0.02,-0.11 -0.04,-0.23 -0.05,-0.36 -0.01,-0.12 -0.02,-0.25 -0.02,-0.4 0,-0.45 0.1,-0.95 0.3,-1.49 0.2,-0.54 0.47,-1.07 0.83,-1.6 0.55,-0.79 1.16,-1.39 1.82,-1.8 0.67,-0.42 1.36,-0.63 2.08,-0.63 0.35,0 0.66,0.06 0.92,0.16 0.26,0.11 0.5,0.27 0.73,0.5l0.12 -0.37c0.07,-0.23 0.14,-0.37 0.21,-0.43 0.07,-0.06 0.18,-0.09 0.31,-0.09 0.38,0 0.72,0.06 1,0.19 0.28,0.13 0.42,0.29 0.42,0.46 0,0.06 -0.12,0.31 -0.35,0.78 -0.24,0.46 -0.45,0.9 -0.63,1.32 -0.36,0.82 -0.63,1.54 -0.82,2.13 -0.18,0.59 -0.27,1.04 -0.27,1.36 0,0.22 0.06,0.37 0.2,0.46 0.14,0.08 0.45,0.15 0.94,0.19l-0.32 1.11 -0.15 0c-0.86,0 -1.47,-0.09 -1.82,-0.28 -0.35,-0.18 -0.52,-0.49 -0.52,-0.92 0,-0.19 0.03,-0.43 0.09,-0.71 0.07,-0.28 0.18,-0.64 0.33,-1.08zm2.07 2.99l0.31 -1.12c0.62,-0.06 1.1,-0.26 1.44,-0.62 0.35,-0.35 0.65,-1 0.91,-1.94l0.7 -2.45 -0.8 0c-0.12,0 -0.21,-0.01 -0.25,-0.04 -0.04,-0.04 -0.07,-0.09 -0.07,-0.16 0,-0.02 0,-0.03 0.01,-0.05 0,-0.01 0.01,-0.04 0.03,-0.1l0.13 -0.39c0.03,-0.11 0.09,-0.18 0.17,-0.22 0.08,-0.03 0.24,-0.05 0.47,-0.05l0.61 0 0.81 -2.67c0.04,-0.15 0.09,-0.34 0.16,-0.6 0.16,-0.71 0.51,-1.07 1.02,-1.07 0.36,0 0.64,0.05 0.85,0.14 0.2,0.09 0.3,0.22 0.3,0.38 0,0.11 -0.06,0.32 -0.19,0.63 -0.07,0.17 -0.11,0.3 -0.15,0.4l-0.94 2.79 1.38 0c0.11,0 0.18,0.01 0.24,0.04 0.05,0.03 0.08,0.08 0.08,0.15 0,0.02 0,0.05 0,0.07 0,0.02 -0.01,0.04 -0.01,0.07l-0.15 0.39c-0.03,0.11 -0.09,0.18 -0.18,0.23 -0.09,0.04 -0.24,0.06 -0.46,0.06l-1.21 0 -0.81 2.66c-0.09,0.3 -0.16,0.56 -0.2,0.77 -0.05,0.22 -0.07,0.4 -0.07,0.54 0,0.31 0.15,0.55 0.45,0.73 0.29,0.17 0.74,0.28 1.32,0.31l-0.32 1.12 -0.2 0c-0.73,0 -1.34,-0.09 -1.83,-0.26 -0.5,-0.18 -0.86,-0.43 -1.08,-0.76 -0.35,0.3 -0.74,0.54 -1.16,0.72 -0.43,0.18 -0.87,0.27 -1.31,0.3zm13.57 -6.11c-0.15,-0.12 -0.3,-0.2 -0.44,-0.26 -0.15,-0.05 -0.29,-0.08 -0.44,-0.08 -0.33,0 -0.7,0.14 -1.12,0.42 -0.42,0.28 -0.82,0.66 -1.21,1.15 -0.35,0.44 -0.63,0.91 -0.84,1.41 -0.2,0.5 -0.31,0.93 -0.31,1.31 0,0.27 0.05,0.47 0.14,0.59 0.1,0.13 0.24,0.2 0.43,0.2 0.54,0 1.13,-0.4 1.78,-1.2 0.64,-0.81 1.31,-1.99 2.01,-3.54zm-0.84 3.12c-0.59,1.05 -1.17,1.81 -1.75,2.29 -0.57,0.49 -1.19,0.73 -1.85,0.73 -0.32,0 -0.59,-0.05 -0.82,-0.13 -0.24,-0.09 -0.42,-0.22 -0.55,-0.39 -0.28,0.15 -0.59,0.26 -0.94,0.34 -0.35,0.08 -0.76,0.13 -1.24,0.15l0.33 -1.12c0.31,-0.01 0.58,-0.05 0.81,-0.11 0.24,-0.06 0.46,-0.15 0.65,-0.26 -0.02,-0.11 -0.04,-0.23 -0.05,-0.36 -0.01,-0.12 -0.01,-0.25 -0.01,-0.4 0,-0.45 0.1,-0.95 0.29,-1.49 0.2,-0.54 0.48,-1.07 0.83,-1.6 0.56,-0.79 1.16,-1.39 1.83,-1.8 0.67,-0.42 1.36,-0.63 2.07,-0.63 0.36,0 0.67,0.06 0.93,0.16 0.25,0.11 0.5,0.27 0.73,0.5l0.11 -0.37c0.07,-0.23 0.15,-0.37 0.22,-0.43 0.07,-0.06 0.17,-0.09 0.31,-0.09 0.38,0 0.71,0.06 0.99,0.19 0.29,0.13 0.43,0.29 0.43,0.46 0,0.06 -0.12,0.31 -0.36,0.78 -0.23,0.46 -0.44,0.9 -0.62,1.32 -0.36,0.82 -0.64,1.54 -0.82,2.13 -0.19,0.59 -0.28,1.04 -0.28,1.36 0,0.22 0.07,0.37 0.21,0.46 0.14,0.08 0.45,0.15 0.94,0.19l-0.32 1.11 -0.15 0c-0.86,0 -1.47,-0.09 -1.82,-0.28 -0.35,-0.18 -0.53,-0.49 -0.53,-0.92 0,-0.19 0.04,-0.43 0.1,-0.71 0.07,-0.28 0.18,-0.64 0.33,-1.08zm2.07 2.99l0.31 -1.12c0.29,0 0.59,-0.08 0.92,-0.25 0.32,-0.17 0.68,-0.43 1.09,-0.79 0.18,-1.25 0.44,-2.54 0.76,-3.87 0.32,-1.32 0.7,-2.63 1.13,-3.93 0.36,-1.07 0.7,-1.81 1.02,-2.22 0.31,-0.41 0.68,-0.61 1.09,-0.61 0.28,0 0.5,0.1 0.68,0.32 0.18,0.22 0.27,0.51 0.27,0.85 0,0.43 -0.16,0.98 -0.48,1.64 -0.33,0.66 -0.76,1.33 -1.31,2.01 -0.42,1.36 -0.76,2.61 -1.02,3.74 -0.26,1.14 -0.38,1.9 -0.38,2.27 0,0.3 0.07,0.51 0.22,0.65 0.15,0.13 0.4,0.19 0.74,0.19l-0.32 1.12 -0.19 0c-0.62,0 -1.09,-0.09 -1.43,-0.27 -0.34,-0.17 -0.56,-0.45 -0.66,-0.81 -0.37,0.33 -0.75,0.59 -1.17,0.77 -0.41,0.18 -0.84,0.28 -1.27,0.31zm7.15 -0.67c-0.42,0.19 -0.83,0.35 -1.24,0.46 -0.41,0.12 -0.81,0.18 -1.19,0.21l0.32 -1.12c0.33,-0.01 0.64,-0.07 0.94,-0.16 0.3,-0.08 0.59,-0.21 0.88,-0.38 0.01,-0.52 0.09,-1.09 0.22,-1.7 0.14,-0.62 0.36,-1.34 0.66,-2.18 0.37,-0.99 0.65,-1.63 0.83,-1.93 0.18,-0.28 0.37,-0.43 0.57,-0.43 0.43,0 0.75,0.05 0.97,0.15 0.22,0.1 0.33,0.26 0.33,0.46 0,0.11 -0.12,0.42 -0.35,0.92 -0.24,0.49 -0.42,0.9 -0.55,1.21 -0.29,0.71 -0.5,1.29 -0.63,1.74 -0.12,0.44 -0.18,0.84 -0.18,1.19 0,0.21 0.05,0.36 0.13,0.47 0.09,0.1 0.22,0.15 0.39,0.15 0.41,0 0.88,-0.3 1.4,-0.91 0.53,-0.61 1.01,-1.42 1.46,-2.43 0.22,-0.49 0.43,-1.08 0.64,-1.76 0.22,-0.74 0.49,-1.11 0.82,-1.11 0.33,0 0.61,0.06 0.85,0.18 0.24,0.12 0.36,0.27 0.36,0.45 0,0.1 -0.07,0.31 -0.2,0.62 -0.1,0.22 -0.18,0.4 -0.22,0.54l-1.87 5.13c0.3,-0.06 0.81,-0.13 1.55,-0.2 0.07,-0.01 0.12,-0.01 0.16,-0.02l-0.32 1.12c-0.51,0.05 -0.9,0.09 -1.17,0.14 -0.27,0.05 -0.5,0.1 -0.7,0.16 -0.38,1.32 -0.8,2.31 -1.27,2.95 -0.47,0.64 -0.99,0.96 -1.58,0.96 -0.28,0 -0.5,-0.07 -0.66,-0.21 -0.15,-0.14 -0.22,-0.35 -0.22,-0.63 0,-0.51 0.2,-1.01 0.59,-1.51 0.39,-0.5 0.91,-0.9 1.57,-1.2 0.27,-0.67 0.52,-1.31 0.75,-1.92 0.23,-0.61 0.45,-1.21 0.65,-1.8 -0.58,1.07 -1.15,1.85 -1.71,2.35 -0.56,0.49 -1.15,0.74 -1.76,0.74 -0.28,0 -0.53,-0.06 -0.76,-0.2 -0.23,-0.13 -0.38,-0.3 -0.46,-0.5z"/>
   <path class="fil1" d="M0.06 43.07l0 -4.02 0.43 0 0 3.56 2.25 0 0 0.46 -2.68 0zm3.59 -1.2l1.05 0 -0.52 -1.19 -0.53 1.19zm-0.96 1.2l1.35 -3.11 0.27 0 1.37 3.11 -0.45 0 -0.35 -0.79 -1.41 0 -0.34 0.79 -0.44 0zm3.15 -0.4l0.21 -0.4c0.18,0.14 0.38,0.25 0.6,0.33 0.22,0.08 0.42,0.12 0.62,0.12 0.24,0 0.43,-0.05 0.58,-0.17 0.14,-0.11 0.22,-0.26 0.22,-0.43 0,-0.18 -0.07,-0.31 -0.2,-0.4 -0.14,-0.08 -0.35,-0.13 -0.64,-0.14 -0.48,-0.01 -0.82,-0.07 -1,-0.2 -0.18,-0.12 -0.27,-0.33 -0.27,-0.61 0,-0.27 0.1,-0.49 0.3,-0.65 0.2,-0.16 0.47,-0.24 0.8,-0.24 0.23,0 0.45,0.03 0.67,0.11 0.22,0.07 0.42,0.19 0.62,0.33l-0.21 0.41c-0.16,-0.13 -0.34,-0.23 -0.53,-0.31 -0.2,-0.07 -0.38,-0.1 -0.56,-0.1 -0.2,0 -0.36,0.04 -0.48,0.12 -0.13,0.08 -0.19,0.19 -0.19,0.32 0,0.14 0.06,0.24 0.19,0.3 0.12,0.06 0.34,0.09 0.64,0.09 0.43,0 0.75,0.08 0.97,0.25 0.21,0.16 0.32,0.41 0.32,0.75 0,0.29 -0.11,0.53 -0.33,0.73 -0.22,0.19 -0.5,0.29 -0.85,0.29 -0.26,0 -0.52,-0.04 -0.78,-0.13 -0.25,-0.09 -0.48,-0.21 -0.7,-0.37zm3.82 -1.05l0 1.45 -0.41 0 0 -3.11 0.41 0 0 1.21 1.88 0 0 -1.21 0.41 0 0 3.11 -0.41 0 0 -1.45 -1.88 0zm5.03 -0.77l1.35 0 0 0.44 -1.35 0 0 -0.44zm4.58 -0.21l1.65 0c0.18,0 0.32,-0.05 0.41,-0.15 0.1,-0.09 0.15,-0.23 0.15,-0.41 0,-0.19 -0.05,-0.33 -0.14,-0.43 -0.1,-0.09 -0.24,-0.14 -0.42,-0.14l-1.65 0 0 1.13zm0 1.97l1.8 0c0.2,0 0.35,-0.07 0.47,-0.2 0.11,-0.14 0.17,-0.32 0.17,-0.56 0,-0.23 -0.06,-0.41 -0.17,-0.55 -0.12,-0.13 -0.27,-0.2 -0.47,-0.2l-1.8 0 0 1.51zm-0.43 0.46l0 -4.02 2.04 0c0.34,0 0.6,0.08 0.77,0.25 0.17,0.17 0.26,0.42 0.26,0.75 0,0.16 -0.02,0.3 -0.08,0.43 -0.05,0.13 -0.13,0.23 -0.23,0.31 0.18,0.12 0.32,0.27 0.41,0.45 0.1,0.18 0.15,0.39 0.15,0.62 0,0.37 -0.11,0.67 -0.32,0.89 -0.21,0.21 -0.49,0.32 -0.85,0.32l-2.15 0zm4.54 -1.81l1.42 0c0.14,0 0.25,-0.04 0.33,-0.11 0.07,-0.08 0.11,-0.18 0.11,-0.32 0,-0.13 -0.04,-0.24 -0.11,-0.31 -0.08,-0.07 -0.19,-0.11 -0.33,-0.11l-1.42 0 0 0.85zm0 0.45l0 1.36 -0.42 0 0 -3.1 1.84 0c0.27,0 0.48,0.07 0.64,0.23 0.15,0.15 0.23,0.36 0.23,0.63 0,0.22 -0.06,0.42 -0.18,0.58 -0.12,0.16 -0.28,0.26 -0.48,0.3l0.74 1.36 -0.45 0 -0.76 -1.36 -1.16 0zm4.45 1c0.35,0 0.65,-0.11 0.87,-0.33 0.23,-0.23 0.34,-0.51 0.34,-0.86 0,-0.35 -0.11,-0.63 -0.34,-0.86 -0.23,-0.22 -0.52,-0.34 -0.87,-0.34 -0.36,0 -0.64,0.12 -0.87,0.34 -0.22,0.23 -0.34,0.51 -0.34,0.86 0,0.35 0.12,0.63 0.34,0.86 0.23,0.22 0.51,0.33 0.87,0.33zm0 0.46c-0.48,0 -0.87,-0.16 -1.17,-0.47 -0.31,-0.31 -0.46,-0.71 -0.46,-1.18 0,-0.48 0.15,-0.87 0.45,-1.18 0.31,-0.31 0.7,-0.46 1.18,-0.46 0.48,0 0.87,0.15 1.18,0.46 0.31,0.31 0.46,0.7 0.46,1.18 0,0.48 -0.16,0.87 -0.46,1.18 -0.31,0.31 -0.7,0.47 -1.18,0.47zm2.82 -0.1l-0.9 -3.11 0.41 0 0.65 2.28 0.67 -2.28 0.35 0 0.67 2.28 0.66 -2.28 0.41 0 -0.9 3.11 -0.3 0 -0.71 -2.39 -0.71 2.39 -0.3 0zm5.25 -2.22l1.35 0 0 0.44 -1.35 0 0 -0.44zm4.15 2.22l0 -4.02 0.42 0 0 3.56 2.26 0 0 0.46 -2.68 0zm3.59 -1.2l1.04 0 -0.52 -1.19 -0.52 1.19zm-0.97 1.2l1.36 -3.11 0.26 0 1.37 3.11 -0.44 0 -0.35 -0.79 -1.41 0 -0.35 0.79 -0.44 0zm3.39 0l0 -3.11 0.35 0 1.09 1.82 1.1 -1.82 0.34 0 0 3.11 -0.41 0 0 -2.24 -1.03 1.73 -1.02 -1.73 0 2.24 -0.42 0zm3.8 0l0 -3.12 0.43 0 0 3.12 -0.43 0z"/>
  </g>
 </g>
</svg>
