<?xml version="1.0" encoding="UTF-8"?>
<!DOCTYPE svg PUBLIC "-//W3C//DTD SVG 1.1//EN" "http://www.w3.org/Graphics/SVG/1.1/DTD/svg11.dtd">
<!-- Creator: CorelDRAW -->
<svg xmlns="http://www.w3.org/2000/svg" xml:space="preserve" width="862px" height="627px" version="1.1" style="shape-rendering:geometricPrecision; text-rendering:geometricPrecision; image-rendering:optimizeQuality; fill-rule:evenodd; clip-rule:evenodd"
viewBox="0 0 592.04 430.81"
 xmlns:xlink="http://www.w3.org/1999/xlink"
 xmlns:xodm="http://www.corel.com/coreldraw/odm/2003">
 <defs>
  <style type="text/css">
   <![CDATA[
    .fil0 {fill:black;fill-rule:nonzero}
    .fil1 {fill:#2B2A29;fill-rule:nonzero}
   ]]>
  </style>
 </defs>
 <g id="Слой_x0020_1">
  <metadata id="CorelCorpID_0Corel-Layer"/>
  <g id="_2482188332832">
   <path class="fil0" d="M237.62 0.48c-13.01,1.7 -31.49,9.52 -45.54,19.42 -9.62,6.79 -24.14,20.74 -31.96,30.55 -3.21,4.15 -6.13,8.01 -6.22,8.48 -0.19,0.47 5.47,-2.92 12.54,-7.54 23.38,-15.37 36.48,-20.46 58.64,-22.63 18.95,-1.88 39.78,1.79 79,14.24l15.09 4.71 20.08 -9.24c10.94,-5.09 19.98,-9.52 19.98,-9.8 0,-0.76 -3.39,-1.98 -28.28,-10.37 -41.1,-13.77 -74.48,-20.18 -93.33,-17.82l0 0z"/>
   <path class="fil0" d="M355.12 51.99c-42.56,19.69 -80.02,36.37 -102.53,45.57 -19.5,8.02 -36.36,15.4 -37.46,16.31 -3.46,3.1 -4.28,7.39 -4.19,21.6 0.18,19.96 0.91,20.33 6.2,3.1 5.38,-17.68 5.74,-18.41 8.56,-19.96 4.65,-2.37 67.63,-25.79 134.07,-49.85 37.37,-13.49 69.54,-25.33 71.55,-26.25 2,-1 4.37,-3 5.28,-4.46 3.19,-5.38 1.27,-13.4 -3.92,-16.04 -6.11,-3.19 -6.47,-3.01 -77.56,29.98z"/>
   <path class="fil0" d="M376.3 54.31c-11.69,4.25 -20.55,7.92 -19.8,8.11 4.15,1.42 35.54,16.69 42.71,20.84 4.62,2.64 8.48,4.71 8.58,4.62 0.09,-0.19 0.47,-8.49 0.75,-18.39l0.66 -18.2 -4.71 -2.35c-2.55,-1.32 -5.19,-2.36 -5.84,-2.36 -0.67,0.1 -10.75,3.49 -22.35,7.73l0 0z"/>
   <path class="fil0" d="M179.35 120.31c-1.69,1.7 -1.41,2.55 1.98,4.52 3.96,2.46 4.44,2.36 4.44,-0.75 0,-1.98 -0.67,-3.02 -2.36,-3.77 -2.92,-1.42 -2.64,-1.42 -4.06,0l0 0z"/>
   <path class="fil0" d="M179.16 135.49c-6.03,2.92 -7.82,5.47 -4.52,6.13 2.36,0.47 12.07,-4.15 12.07,-5.66 -0.1,-3.4 -1.51,-3.49 -7.55,-0.47l0 0z"/>
   <path class="fil0" d="M201.42 136.33c-0.29,1.33 0,2.55 0.66,3.12 0.65,0.47 5.18,4.15 9.99,8.01l8.76 6.98 -8.1 7.92c-8.2,7.92 -9.34,9.9 -6.6,10.93 1.13,0.38 4.14,-1.88 10.18,-7.82l8.58 -8.49 5.85 3.3 5.84 3.3 -5.66 8.58c-3.11,4.71 -5.46,9.05 -5.27,9.62 0.18,0.56 1.12,1.03 2.16,1.03 1.23,0 3.49,-2.54 6.98,-7.73 2.83,-4.24 5.47,-8.01 5.84,-8.39 0.85,-0.85 13.01,3.59 13.01,4.81 0,0.47 -1.31,4.62 -3.01,9.24 -2.08,5.94 -2.64,8.58 -1.89,9.33 1.98,1.98 3.77,-0.19 6.79,-8.86 1.7,-4.81 3.2,-8.86 3.3,-8.95 0.19,-0.38 13.67,2.26 14.14,2.73 0.19,0.19 0,4.15 -0.47,8.77 -0.76,6.97 -0.66,8.76 0.47,9.9 2.26,2.16 3.3,0.09 4.24,-8.58 0.47,-4.34 0.95,-8.39 0.95,-8.87 0,-0.56 2.92,-0.84 7.44,-0.65l7.55 0.28 1.13 8.58c1.32,9.14 2.92,12.25 5.18,9.99 1.13,-1.04 1.04,-2.54 -0.09,-9.24 -0.76,-4.43 -1.42,-8.48 -1.42,-9.05 0,-0.56 2.27,-1.32 5,-1.7 2.64,-0.28 5.75,-0.85 6.88,-1.13 1.79,-0.47 2.46,0.57 6.04,8.96 2.17,5.28 4.43,9.81 4.9,10.09 0.57,0.37 1.51,0 2.26,-0.76 1.23,-1.13 0.85,-2.54 -2.35,-10.27 -2.08,-4.91 -3.4,-9.15 -3.12,-9.43 0.38,-0.38 3.12,-1.32 6.13,-2.17 3.87,-1.13 5.85,-1.32 6.7,-0.66 0.66,0.57 3.67,4.62 6.69,9.05 5.28,7.73 8.11,9.71 9.24,6.69 0.28,-0.65 -2.26,-5.18 -5.66,-9.89 -3.39,-4.81 -5.94,-8.87 -5.75,-8.96 0.1,-0.19 2.55,-1.04 5.28,-2.08l5.09 -1.79 7.92 8.3c4.43,4.62 8.49,8.2 9.15,7.92 3.01,-0.94 1.51,-4.06 -5.47,-11.03l-7.17 -7.26 4.06 -1.51c2.26,-0.94 4.43,-1.6 4.9,-1.6 0.38,0 5.37,4.33 11.03,9.52 6.79,6.32 10.75,9.34 11.69,8.96 2.83,-1.04 1.32,-3.4 -7.54,-11.6 -4.9,-4.52 -8.96,-8.58 -8.96,-8.96 0,-0.75 7.92,-2.64 12.44,-2.92 4.53,-0.28 6.23,-1.88 4.53,-3.96 -1.04,-1.22 -2.26,-1.41 -6.03,-0.94 -6.23,0.75 -10.94,2.26 -30.27,9.71 -30.16,11.5 -39.78,13.77 -57.5,13.77 -29.14,-0.1 -50.16,-8.21 -76.18,-29.33 -4.62,-3.77 -8.77,-6.88 -9.15,-6.88 -0.37,0 -0.94,0.94 -1.31,2.07l0 0z"/>
   <path class="fil0" d="M176.34 152.74c-19.05,6.79 -19.8,7.07 -19.8,8.39 0,2.55 1.88,2.36 12.35,-1.41 5.75,-2.08 10.65,-3.68 10.84,-3.49 0.19,0.09 -3.39,3.02 -7.92,6.32 -7.82,5.84 -10.65,9.42 -7.26,9.42 0.85,0 5.75,-3.2 10.85,-7.07 5.18,-3.96 9.42,-6.88 9.42,-6.6 0,0.38 -2.73,4.43 -6.13,9.15 -6.41,8.95 -7.26,11.12 -4.43,11.12 0.95,0 4.62,-4.24 9.62,-11.41 10.18,-14.52 10.84,-15.64 9.33,-17.44 -1.6,-1.98 -3.96,-1.6 -16.87,3.02l0 0z"/>
   <path class="fil1" d="M70.38 292.93c13.13,-23.02 24.54,-39.39 34.23,-49.15 9.69,-9.72 19.21,-14.58 28.51,-14.58 6.02,0 10.82,1.78 14.45,5.32 3.61,3.57 5.42,8.3 5.42,14.26 0,6.08 -4.46,22.65 -13.39,49.77 -2.25,6.91 -4,12.24 -5.22,15.98 -0.96,3.04 -2.35,7.21 -4.17,12.5 -5.19,15.38 -7.77,24.97 -7.77,28.77 0,4.2 1.29,7.21 3.87,9.06 2.61,1.85 7.07,2.91 13.39,3.24l-3.77 13.1 -3.57 0c-11.11,0 -19.58,-2.15 -25.4,-6.45 -5.82,-4.3 -8.73,-10.62 -8.73,-18.95 0,-7.41 4.46,-23.18 13.36,-47.29 3.18,-8.64 5.59,-15.38 7.28,-20.15 3.17,-8.79 5.42,-15.6 6.74,-20.4 1.33,-4.83 1.99,-8.5 1.99,-11.02 0,-1.95 -0.4,-3.37 -1.23,-4.29 -0.79,-0.96 -2.05,-1.43 -3.74,-1.43 -2.57,0 -5.78,1.72 -9.62,5.13 -3.87,3.44 -8.47,8.66 -13.83,15.71 -7.87,10.55 -15.07,21.03 -21.62,31.52 -6.52,10.45 -12.01,20.27 -16.47,29.47 -6.52,13.36 -12.3,26.92 -17.33,40.74 -1.16,3.14 -1.86,4.86 -2.06,5.13 -0.82,1.16 -2.41,2.05 -4.72,2.71 -2.35,0.63 -5.19,0.96 -8.64,0.96 -3.47,0 -5.88,-0.36 -7.24,-1.06 -1.36,-0.73 -2.05,-1.95 -2.05,-3.67 0,-1.95 2.15,-7.77 6.48,-17.53 2.22,-4.83 3.97,-8.73 5.26,-11.71 7.61,-17.76 13.6,-34.23 18,-49.41 4.39,-15.18 6.58,-26.69 6.58,-34.52 0,-4.27 -1.03,-7.58 -3.05,-9.93 -2.05,-2.35 -4.86,-3.54 -8.46,-3.54 -6.19,0 -11.71,3.77 -16.57,11.35 -4.83,7.57 -7.24,16.4 -7.24,26.56 0,3.17 0.32,6.34 0.95,9.55 0.66,3.21 1.66,6.58 3.01,10.12 -1.09,0.73 -2.25,1.26 -3.47,1.63 -1.23,0.36 -2.58,0.52 -4.07,0.52 -5.36,0 -9.46,-2.05 -12.27,-6.12 -2.81,-4.06 -4.2,-10.02 -4.2,-17.82 0,-15.45 4.73,-28.81 14.19,-40.09 9.46,-11.28 20.54,-16.93 33.24,-16.93 8.66,0 15.57,2.88 20.77,8.67 5.19,5.79 7.8,13.52 7.8,23.21 0,3.91 -0.46,8.34 -1.35,13.36 -0.9,5 -2.32,10.88 -4.27,17.7zm159.44 16.44c-1.75,-1.36 -3.47,-2.35 -5.19,-3.01 -1.72,-0.63 -3.44,-0.96 -5.19,-0.96 -3.84,0 -8.2,1.65 -13.16,4.96 -4.93,3.27 -9.66,7.77 -14.19,13.46 -4.14,5.22 -7.44,10.78 -9.86,16.64 -2.41,5.85 -3.64,10.97 -3.64,15.37 0,3.15 0.57,5.49 1.66,7.01 1.09,1.53 2.77,2.29 5.03,2.29 6.35,0 13.29,-4.73 20.86,-14.16 7.58,-9.42 15.45,-23.31 23.68,-41.6zm-9.88 36.74c-6.92,12.3 -13.76,21.26 -20.54,26.95 -6.78,5.69 -14.06,8.54 -21.83,8.54 -3.67,0 -6.88,-0.53 -9.63,-1.56 -2.74,-1.02 -4.89,-2.54 -6.45,-4.56 -3.24,1.75 -6.91,3.08 -11.04,4.03 -4.13,0.93 -9,1.49 -14.55,1.69l3.9 -13.1c3.54,-0.19 6.71,-0.62 9.52,-1.35 2.81,-0.7 5.36,-1.69 7.61,-2.98 -0.23,-1.36 -0.43,-2.78 -0.56,-4.23 -0.13,-1.42 -0.2,-3.01 -0.2,-4.7 0,-5.36 1.16,-11.21 3.47,-17.59 2.35,-6.35 5.59,-12.61 9.79,-18.76 6.49,-9.29 13.63,-16.37 21.47,-21.26 7.87,-4.86 15.97,-7.31 24.37,-7.31 4.2,0 7.81,0.63 10.85,1.85 3.04,1.23 5.92,3.18 8.63,5.89l1.36 -4.37c0.83,-2.68 1.69,-4.36 2.51,-5.06 0.83,-0.73 2.05,-1.09 3.67,-1.09 4.47,0 8.37,0.76 11.68,2.28 3.34,1.56 4.99,3.34 4.99,5.43 0,0.66 -1.39,3.67 -4.17,9.09 -2.78,5.46 -5.22,10.62 -7.34,15.51 -4.26,9.76 -7.47,18.13 -9.65,25.07 -2.16,6.95 -3.25,12.27 -3.25,16.01 0,2.61 0.8,4.4 2.42,5.39 1.62,0.99 5.29,1.75 11.04,2.28l-3.77 13 -1.75 0c-10.12,0 -17.26,-1.06 -21.4,-3.21 -4.13,-2.12 -6.18,-5.75 -6.18,-10.85 0,-2.25 0.4,-5.02 1.15,-8.33 0.8,-3.27 2.09,-7.51 3.88,-12.7zm24.3 35.09l3.67 -13.1c7.25,-0.73 12.91,-3.14 16.94,-7.31 4.07,-4.16 7.64,-11.77 10.71,-22.85l8.14 -28.77 -9.39 0c-1.43,0 -2.38,-0.17 -2.91,-0.53 -0.5,-0.36 -0.76,-0.99 -0.76,-1.89 0,-0.13 0,-0.29 0.03,-0.49 0.03,-0.2 0.17,-0.57 0.36,-1.16l1.56 -4.63c0.36,-1.26 1.02,-2.08 1.98,-2.55 0.93,-0.43 2.78,-0.66 5.56,-0.66l7.17 0 9.5 -31.42c0.52,-1.69 1.12,-4 1.85,-6.98 1.98,-8.4 5.98,-12.6 12.01,-12.6 4.26,0 7.57,0.53 9.98,1.59 2.38,1.09 3.57,2.58 3.57,4.53 0,1.29 -0.72,3.77 -2.21,7.44 -0.8,1.95 -1.36,3.51 -1.75,4.67l-11.15 32.77 16.27 0c1.26,0 2.18,0.17 2.84,0.53 0.63,0.36 0.97,0.93 0.97,1.69 0,0.33 0,0.62 -0.04,0.89 -0.03,0.23 -0.1,0.5 -0.16,0.76l-1.66 4.66c-0.4,1.23 -1.09,2.09 -2.11,2.62 -1.06,0.49 -2.85,0.76 -5.46,0.76l-14.22 0 -9.49 31.32c-1.13,3.47 -1.92,6.51 -2.45,9.06 -0.5,2.54 -0.76,4.63 -0.76,6.25 0,3.67 1.75,6.55 5.23,8.63 3.5,2.05 8.69,3.28 15.6,3.67l-3.8 13.1 -2.32 0c-8.59,0 -15.77,-1.03 -21.59,-3.04 -5.82,-2.05 -10.02,-5 -12.6,-8.9 -4.14,3.57 -8.73,6.38 -13.73,8.44 -5.02,2.08 -10.15,3.24 -15.38,3.5zm159.58 -71.83c-1.75,-1.36 -3.47,-2.35 -5.19,-3.01 -1.72,-0.63 -3.44,-0.96 -5.19,-0.96 -3.84,0 -8.21,1.65 -13.17,4.96 -4.92,3.27 -9.66,7.77 -14.19,13.46 -4.13,5.22 -7.44,10.78 -9.85,16.64 -2.42,5.85 -3.64,10.97 -3.64,15.37 0,3.15 0.56,5.49 1.66,7.01 1.09,1.53 2.77,2.29 5.02,2.29 6.35,0 13.3,-4.73 20.87,-14.16 7.57,-9.42 15.45,-23.31 23.68,-41.6zm-9.89 36.74c-6.91,12.3 -13.76,21.26 -20.53,26.95 -6.78,5.69 -14.06,8.54 -21.83,8.54 -3.67,0 -6.88,-0.53 -9.63,-1.56 -2.74,-1.02 -4.89,-2.54 -6.45,-4.56 -3.24,1.75 -6.91,3.08 -11.04,4.03 -4.14,0.93 -9,1.49 -14.56,1.69l3.91 -13.1c3.53,-0.19 6.71,-0.62 9.52,-1.35 2.81,-0.7 5.36,-1.69 7.61,-2.98 -0.23,-1.36 -0.43,-2.78 -0.56,-4.23 -0.14,-1.42 -0.2,-3.01 -0.2,-4.7 0,-5.36 1.16,-11.21 3.47,-17.59 2.35,-6.35 5.59,-12.61 9.79,-18.76 6.48,-9.29 13.63,-16.37 21.46,-21.26 7.88,-4.86 15.98,-7.31 24.38,-7.31 4.2,0 7.8,0.63 10.85,1.85 3.04,1.23 5.92,3.18 8.63,5.89l1.35 -4.37c0.83,-2.68 1.69,-4.36 2.52,-5.06 0.83,-0.73 2.05,-1.09 3.67,-1.09 4.46,0 8.37,0.76 11.67,2.28 3.35,1.56 5,3.34 5,5.43 0,0.66 -1.39,3.67 -4.17,9.09 -2.78,5.46 -5.23,10.62 -7.34,15.51 -4.27,9.76 -7.48,18.13 -9.66,25.07 -2.15,6.95 -3.24,12.27 -3.24,16.01 0,2.61 0.79,4.4 2.41,5.39 1.63,0.99 5.3,1.75 11.05,2.28l-3.77 13 -1.75 0c-10.12,0 -17.27,-1.06 -21.4,-3.21 -4.14,-2.12 -6.19,-5.75 -6.19,-10.85 0,-2.25 0.4,-5.02 1.16,-8.33 0.8,-3.27 2.09,-7.51 3.87,-12.7zm24.31 35.09l3.67 -13.1c3.37,0 6.95,-0.99 10.78,-2.94 3.81,-1.99 8.11,-5.09 12.9,-9.36 2.12,-14.68 5.1,-29.8 8.86,-45.41 3.78,-15.61 8.24,-31.02 13.33,-46.27 4.27,-12.6 8.27,-21.3 11.98,-26.13 3.73,-4.79 8,-7.21 12.86,-7.21 3.24,0 5.89,1.3 8,3.88 2.09,2.58 3.15,5.91 3.15,9.98 0,5.03 -1.89,11.44 -5.69,19.25 -3.77,7.77 -8.9,15.68 -15.38,23.68 -4.96,15.97 -8.96,30.63 -11.97,43.99 -3.01,13.39 -4.5,22.25 -4.5,26.65 0,3.51 0.86,6.02 2.61,7.58 1.75,1.55 4.67,2.31 8.73,2.31l-3.77 13.1 -2.24 0c-7.25,0 -12.87,-1.03 -16.87,-3.11 -4,-2.05 -6.58,-5.26 -7.74,-9.59 -4.27,3.94 -8.83,6.98 -13.69,9.09 -4.83,2.15 -9.86,3.35 -15.02,3.61zm84.14 -7.87c-4.9,2.28 -9.79,4.1 -14.62,5.46 -4.83,1.35 -9.49,2.15 -14.02,2.41l3.8 -13.1c3.87,-0.19 7.54,-0.82 11.05,-1.85 3.5,-1.02 6.97,-2.55 10.38,-4.5 0.13,-6.18 0.99,-12.9 2.62,-20.07 1.61,-7.21 4.19,-15.71 7.73,-25.53 4.34,-11.71 7.58,-19.25 9.73,-22.69 2.15,-3.41 4.39,-5.13 6.71,-5.13 5.06,0 8.86,0.6 11.44,1.79 2.58,1.19 3.87,3.01 3.87,5.39 0,1.35 -1.38,4.96 -4.16,10.81 -2.78,5.82 -4.93,10.55 -6.42,14.19 -3.47,8.4 -5.95,15.21 -7.37,20.47 -1.43,5.26 -2.12,9.93 -2.12,13.99 0,2.48 0.49,4.3 1.49,5.53 1.02,1.22 2.54,1.85 4.63,1.85 4.76,0 10.25,-3.57 16.4,-10.75 6.19,-7.18 11.87,-16.7 17.13,-28.57 2.58,-5.76 5.09,-12.67 7.54,-20.74 2.58,-8.63 5.82,-12.97 9.69,-12.97 3.87,0 7.21,0.7 9.99,2.09 2.78,1.39 4.17,3.14 4.17,5.29 0,1.22 -0.76,3.64 -2.32,7.24 -1.16,2.65 -2.05,4.8 -2.61,6.38l-21.93 60.4c3.51,-0.77 9.56,-1.59 18.23,-2.42 0.79,-0.07 1.39,-0.13 1.85,-0.2l-3.77 13.1c-6.02,0.6 -10.59,1.16 -13.73,1.69 -3.14,0.56 -5.88,1.19 -8.3,1.91 -4.36,15.55 -9.32,27.12 -14.85,34.67 -5.52,7.57 -11.71,11.34 -18.62,11.34 -3.34,0 -5.92,-0.83 -7.7,-2.52 -1.76,-1.68 -2.65,-4.13 -2.65,-7.37 0,-5.98 2.32,-11.94 6.91,-17.83 4.6,-5.85 10.78,-10.58 18.52,-14.12 3.15,-7.84 6.09,-15.34 8.8,-22.55 2.71,-7.21 5.26,-14.26 7.68,-21.1 -6.85,12.53 -13.57,21.73 -20.15,27.55 -6.58,5.82 -13.49,8.73 -20.7,8.73 -3.24,0 -6.22,-0.77 -8.93,-2.32 -2.68,-1.55 -4.5,-3.54 -5.39,-5.95z"/>
   <path class="fil1" d="M14.17 430.31l0 -20.2 4.13 0 0 17.88 21.71 0 0 2.32 -25.84 0zm34.6 -6.03l10.05 0 -5 -5.99 -5.05 5.99zm-9.32 6.03l13.08 -15.63 2.53 0 13.19 15.63 -4.31 0 -3.34 -3.97 -13.58 0 -3.32 3.97 -4.25 0zm30.4 -2l1.95 -2.05c1.78,0.72 3.7,1.28 5.79,1.68 2.1,0.41 4.1,0.61 6,0.61 2.29,0 4.15,-0.28 5.55,-0.85 1.41,-0.57 2.12,-1.29 2.12,-2.18 0,-0.89 -0.65,-1.55 -1.94,-1.99 -1.29,-0.43 -3.31,-0.67 -6.09,-0.71 -4.68,-0.04 -7.9,-0.37 -9.65,-0.99 -1.74,-0.63 -2.61,-1.66 -2.61,-3.09 0,-1.34 0.95,-2.42 2.87,-3.24 1.92,-0.82 4.5,-1.23 7.74,-1.23 2.21,0 4.35,0.19 6.43,0.57 2.08,0.38 4.08,0.94 6.02,1.68l-2.03 2.02c-1.61,-0.65 -3.33,-1.16 -5.18,-1.52 -1.85,-0.35 -3.62,-0.54 -5.3,-0.54 -1.95,0 -3.52,0.21 -4.71,0.62 -1.18,0.42 -1.78,0.96 -1.78,1.62 0,0.7 0.6,1.19 1.79,1.48 1.19,0.3 3.27,0.44 6.22,0.44 4.1,0 7.18,0.42 9.27,1.26 2.08,0.85 3.13,2.09 3.13,3.75 0,1.48 -1.06,2.7 -3.17,3.68 -2.12,0.98 -4.86,1.46 -8.23,1.46 -2.5,0 -4.97,-0.21 -7.43,-0.64 -2.46,-0.44 -4.71,-1.05 -6.76,-1.84zm36.76 -5.27l0 7.27 -4 0 0 -15.63 4 0 0 6.07 18.07 0 0 -6.07 4.01 0 0 15.63 -4.01 0 0 -7.27 -18.07 0zm48.4 -3.9l13.02 0 0 2.21 -13.02 0 0 -2.21zm44.08 -1.04l15.88 0c1.75,0 3.09,-0.25 4,-0.73 0.93,-0.48 1.39,-1.17 1.39,-2.08 0,-0.95 -0.44,-1.66 -1.33,-2.14 -0.9,-0.48 -2.25,-0.71 -4.06,-0.71l-15.88 0 0 5.66zm0 9.89l17.39 0c1.89,0 3.38,-0.34 4.47,-1.02 1.08,-0.67 1.63,-1.6 1.63,-2.77 0,-1.15 -0.55,-2.08 -1.63,-2.76 -1.09,-0.68 -2.58,-1.02 -4.47,-1.02l-17.39 0 0 7.57zm-4.13 2.32l0 -20.2 19.66 0c3.27,0 5.74,0.43 7.41,1.28 1.68,0.85 2.52,2.1 2.52,3.76 0,0.8 -0.25,1.52 -0.78,2.16 -0.52,0.64 -1.26,1.15 -2.23,1.53 1.77,0.63 3.11,1.39 4,2.29 0.9,0.91 1.36,1.93 1.36,3.11 0,1.87 -1.01,3.34 -3.02,4.43 -2.03,1.1 -4.76,1.64 -8.21,1.64l-20.71 0zm43.7 -9.11l13.67 0c1.39,0 2.45,-0.18 3.17,-0.54 0.74,-0.38 1.11,-0.9 1.11,-1.59 0,-0.68 -0.37,-1.2 -1.11,-1.56 -0.72,-0.36 -1.78,-0.54 -3.17,-0.54l-13.67 0 0 4.23zm0 2.29l0 6.82 -4 0 0 -15.59 17.67 0c2.64,0 4.69,0.39 6.18,1.16 1.49,0.77 2.22,1.83 2.22,3.2 0,1.11 -0.58,2.07 -1.76,2.88 -1.17,0.81 -2.7,1.31 -4.59,1.49l7.16 6.86 -4.37 0 -7.29 -6.82 -11.22 0zm42.86 5.02c3.43,0 6.23,-0.56 8.41,-1.69 2.16,-1.13 3.24,-2.56 3.24,-4.3 0,-1.74 -1.09,-3.17 -3.27,-4.3 -2.18,-1.13 -4.97,-1.7 -8.38,-1.7 -3.42,0 -6.2,0.56 -8.36,1.69 -2.15,1.13 -3.24,2.56 -3.24,4.31 0,1.74 1.09,3.17 3.24,4.3 2.16,1.13 4.94,1.69 8.36,1.69zm0 2.28c-4.58,0 -8.35,-0.78 -11.3,-2.36 -2.95,-1.56 -4.43,-3.53 -4.43,-5.91 0,-2.39 1.47,-4.36 4.41,-5.92 2.95,-1.55 6.72,-2.33 11.32,-2.33 4.63,0 8.42,0.78 11.37,2.33 2.95,1.54 4.41,3.52 4.41,5.92 0,2.39 -1.48,4.36 -4.43,5.93 -2.94,1.56 -6.73,2.34 -11.35,2.34zm27.19 -0.48l-8.7 -15.63 3.98 0 6.26 11.44 6.47 -11.44 3.34 0 6.47 11.44 6.29 -11.44 3.94 0 -8.64 15.63 -2.89 0 -6.82 -12.02 -6.87 12.02 -2.83 0zm50.48 -11.17l13.02 0 0 2.21 -13.02 0 0 -2.21zm39.95 11.17l0 -20.2 4.12 0 0 17.88 21.71 0 0 2.32 -25.83 0zm34.59 -6.03l10.05 0 -4.99 -5.99 -5.06 5.99zm-9.31 6.03l13.07 -15.63 2.53 0 13.19 15.63 -4.3 0 -3.35 -3.97 -13.57 0 -3.32 3.97 -4.25 0zm32.62 0l0 -15.63 3.34 0 10.52 9.15 10.55 -9.15 3.34 0 0 15.63 -4.01 0 0 -11.24 -9.88 8.69 -9.86 -8.69 0 11.24 -4 0zm36.62 0l0 -15.66 4.07 0 0 15.66 -4.07 0z"/>
  </g>
 </g>
</svg>
